<svg xmlns="http://www.w3.org/2000/svg" xmlns:xlink="http://www.w3.org/1999/xlink" version="1.1" class="marks" width="585" height="232" viewBox="0 0 585 232"><g fill="none" stroke-miterlimit="10" transform="translate(121,4)"><g class="mark-group role-frame root" role="graphics-object" aria-roledescription="group mark container"><g transform="translate(0,0)"><path class="background" aria-hidden="true" d="M0,0h460v224h-460Z"/><g><g class="mark-group role-axis" role="graphics-symbol" aria-roledescription="axis" aria-label="Y-axis for a discrete scale with 8 values: fqxv --order shuffle, SPRING, fqxv --max, fqxv, fqz_comp, ending with gzip"><g transform="translate(0.5,0.5)"><path class="background" aria-hidden="true" d="M0,0h0v0h0Z" pointer-events="none"/><g><g class="mark-text role-axis-label" pointer-events="none"><text text-anchor="end" transform="translate(-8,17.499999999999993)" font-family="-apple-system, BlinkMacSystemFont, Segoe UI, Helvetica, Arial, sans-serif" font-size="13px" fill="#41564f" opacity="1">fqxv --order shuffle</text><text text-anchor="end" transform="translate(-8,45.49999999999999)" font-family="-apple-system, BlinkMacSystemFont, Segoe UI, Helvetica, Arial, sans-serif" font-size="13px" fill="#41564f" opacity="1">SPRING</text><text text-anchor="end" transform="translate(-8,73.49999999999999)" font-family="-apple-system, BlinkMacSystemFont, Segoe UI, Helvetica, Arial, sans-serif" font-size="13px" fill="#41564f" opacity="1">fqxv --max</text><text text-anchor="end" transform="translate(-8,101.49999999999999)" font-family="-apple-system, BlinkMacSystemFont, Segoe UI, Helvetica, Arial, sans-serif" font-size="13px" fill="#41564f" opacity="1">fqxv</text><text text-anchor="end" transform="translate(-8,129.5)" font-family="-apple-system, BlinkMacSystemFont, Segoe UI, Helvetica, Arial, sans-serif" font-size="13px" fill="#41564f" opacity="1">fqz_comp</text><text text-anchor="end" transform="translate(-8,157.49999999999997)" font-family="-apple-system, BlinkMacSystemFont, Segoe UI, Helvetica, Arial, sans-serif" font-size="13px" fill="#41564f" opacity="1">zstd -19</text><text text-anchor="end" transform="translate(-8,185.49999999999997)" font-family="-apple-system, BlinkMacSystemFont, Segoe UI, Helvetica, Arial, sans-serif" font-size="13px" fill="#41564f" opacity="1">xz -9</text><text text-anchor="end" transform="translate(-8,213.49999999999997)" font-family="-apple-system, BlinkMacSystemFont, Segoe UI, Helvetica, Arial, sans-serif" font-size="13px" fill="#41564f" opacity="1">gzip</text></g></g><path class="foreground" aria-hidden="true" d="" pointer-events="none" display="none"/></g></g><g class="mark-group role-scope" role="graphics-object" aria-roledescription="group mark container"><g transform="translate(0,6.499999999999991)"><path class="background" aria-hidden="true" d="M0,0L400.5087719298246,0C402.1645170033066,0,403.5087719298246,1.344254926518,403.5087719298246,3L403.5087719298246,12C403.5087719298246,13.655745073482,402.1645170033066,15,400.5087719298246,15L0,15C0,15,0,15,0,15L0,0C0,0,0,0,0,0Z"/><g clip-path="url(#clip9)"><g class="mark-group role-scope" role="graphics-object" aria-roledescription="group mark container"><g transform="translate(0,0)"><path class="background" aria-hidden="true" d="M0,0h0v15h0Z"/><g><g class="mark-rect role-mark layer_0_marks" role="graphics-object" aria-roledescription="rect mark container"><path aria-label="value: 23.9; label: fqxv --order shuffle; group: fqxv" role="graphics-symbol" aria-roledescription="bar" d="M0,0h403.5087719298246v15h-403.5087719298246Z" fill="#0e7c72"/></g></g><path class="foreground" aria-hidden="true" d="" display="none"/></g></g></g><path class="foreground" aria-hidden="true" d="" display="none"/></g><g transform="translate(0,34.49999999999999)"><path class="background" aria-hidden="true" d="M0,0L366.7423475005506,0C368.3980925740326,0,369.7423475005506,1.344254926518,369.7423475005506,3L369.7423475005506,12C369.7423475005506,13.655745073482,368.3980925740326,15,366.7423475005506,15L0,15C0,15,0,15,0,15L0,0C0,0,0,0,0,0Z"/><g clip-path="url(#clip10)"><g class="mark-group role-scope" role="graphics-object" aria-roledescription="group mark container"><g transform="translate(0,0)"><path class="background" aria-hidden="true" d="M0,0h0v15h0Z"/><g><g class="mark-rect role-mark layer_0_marks" role="graphics-object" aria-roledescription="rect mark container"><path aria-label="value: 21.9; label: SPRING; group: other" role="graphics-symbol" aria-roledescription="bar" d="M0,0h369.7423475005506v15h-369.7423475005506Z" fill="#c9d6d2"/></g></g><path class="foreground" aria-hidden="true" d="" display="none"/></g></g></g><path class="foreground" aria-hidden="true" d="" display="none"/></g><g transform="translate(0,62.499999999999986)"><path class="background" aria-hidden="true" d="M0,0L338.0408867356677,0C339.6966318091497,0,341.0408867356677,1.344254926518,341.0408867356677,3L341.0408867356677,12C341.0408867356677,13.655745073482,339.6966318091497,15,338.0408867356677,15L0,15C0,15,0,15,0,15L0,0C0,0,0,0,0,0Z"/><g clip-path="url(#clip11)"><g class="mark-group role-scope" role="graphics-object" aria-roledescription="group mark container"><g transform="translate(0,0)"><path class="background" aria-hidden="true" d="M0,0h0v15h0Z"/><g><g class="mark-rect role-mark layer_0_marks" role="graphics-object" aria-roledescription="rect mark container"><path aria-label="value: 20.2; label: fqxv --max; group: fqxv" role="graphics-symbol" aria-roledescription="bar" d="M0,0h341.0408867356677v15h-341.0408867356677Z" fill="#0e7c72"/></g></g><path class="foreground" aria-hidden="true" d="" display="none"/></g></g></g><path class="foreground" aria-hidden="true" d="" display="none"/></g><g transform="translate(0,90.49999999999999)"><path class="background" aria-hidden="true" d="M0,0L162.45547970344276,0C164.11122477692476,0,165.45547970344276,1.344254926518,165.45547970344276,3L165.45547970344276,12C165.45547970344276,13.655745073482,164.11122477692476,15,162.45547970344276,15L0,15C0,15,0,15,0,15L0,0C0,0,0,0,0,0Z"/><g clip-path="url(#clip12)"><g class="mark-group role-scope" role="graphics-object" aria-roledescription="group mark container"><g transform="translate(0,0)"><path class="background" aria-hidden="true" d="M0,0h0v15h0Z"/><g><g class="mark-rect role-mark layer_0_marks" role="graphics-object" aria-roledescription="rect mark container"><path aria-label="value: 9.8; label: fqxv; group: fqxv" role="graphics-symbol" aria-roledescription="bar" d="M0,0h165.45547970344276v15h-165.45547970344276Z" fill="#0e7c72"/></g></g><path class="foreground" aria-hidden="true" d="" display="none"/></g></g></g><path class="foreground" aria-hidden="true" d="" display="none"/></g><g transform="translate(0,118.49999999999999)"><path class="background" aria-hidden="true" d="M0,0L159.07883726051531,0C160.7345823339973,0,162.07883726051531,1.344254926518,162.07883726051531,3L162.07883726051531,12C162.07883726051531,13.655745073482,160.7345823339973,15,159.07883726051531,15L0,15C0,15,0,15,0,15L0,0C0,0,0,0,0,0Z"/><g clip-path="url(#clip13)"><g class="mark-group role-scope" role="graphics-object" aria-roledescription="group mark container"><g transform="translate(0,0)"><path class="background" aria-hidden="true" d="M0,0h0v15h0Z"/><g><g class="mark-rect role-mark layer_0_marks" role="graphics-object" aria-roledescription="rect mark container"><path aria-label="value: 9.6; label: fqz_comp; group: other" role="graphics-symbol" aria-roledescription="bar" d="M0,0h162.07883726051531v15h-162.07883726051531Z" fill="#c9d6d2"/></g></g><path class="foreground" aria-hidden="true" d="" display="none"/></g></g></g><path class="foreground" aria-hidden="true" d="" display="none"/></g><g transform="translate(0,146.49999999999997)"><path class="background" aria-hidden="true" d="M0,0L155.70219481758792,0C157.35793989106992,0,158.70219481758792,1.344254926518,158.70219481758792,3L158.70219481758792,12C158.70219481758792,13.655745073482,157.35793989106992,15,155.70219481758792,15L0,15C0,15,0,15,0,15L0,0C0,0,0,0,0,0Z"/><g clip-path="url(#clip14)"><g class="mark-group role-scope" role="graphics-object" aria-roledescription="group mark container"><g transform="translate(0,0)"><path class="background" aria-hidden="true" d="M0,0h0v15h0Z"/><g><g class="mark-rect role-mark layer_0_marks" role="graphics-object" aria-roledescription="rect mark container"><path aria-label="value: 9.4; label: zstd -19; group: other" role="graphics-symbol" aria-roledescription="bar" d="M0,0h158.70219481758792v15h-158.70219481758792Z" fill="#c9d6d2"/></g></g><path class="foreground" aria-hidden="true" d="" display="none"/></g></g></g><path class="foreground" aria-hidden="true" d="" display="none"/></g><g transform="translate(0,174.49999999999997)"><path class="background" aria-hidden="true" d="M0,0L147.26058871026945,0C148.91633378375144,0,150.26058871026945,1.344254926518,150.26058871026945,3L150.26058871026945,12C150.26058871026945,13.655745073482,148.91633378375144,15,147.26058871026945,15L0,15C0,15,0,15,0,15L0,0C0,0,0,0,0,0Z"/><g clip-path="url(#clip15)"><g class="mark-group role-scope" role="graphics-object" aria-roledescription="group mark container"><g transform="translate(0,0)"><path class="background" aria-hidden="true" d="M0,0h0v15h0Z"/><g><g class="mark-rect role-mark layer_0_marks" role="graphics-object" aria-roledescription="rect mark container"><path aria-label="value: 8.9; label: xz -9; group: other" role="graphics-symbol" aria-roledescription="bar" d="M0,0h150.26058871026945v15h-150.26058871026945Z" fill="#c9d6d2"/></g></g><path class="foreground" aria-hidden="true" d="" display="none"/></g></g></g><path class="foreground" aria-hidden="true" d="" display="none"/></g><g transform="translate(0,202.49999999999997)"><path class="background" aria-hidden="true" d="M0,0L81.41606107318508,0C83.07180614666707,0,84.41606107318508,1.344254926518,84.41606107318508,3L84.41606107318508,12C84.41606107318508,13.655745073482,83.07180614666707,15,81.41606107318508,15L0,15C0,15,0,15,0,15L0,0C0,0,0,0,0,0Z"/><g clip-path="url(#clip16)"><g class="mark-group role-scope" role="graphics-object" aria-roledescription="group mark container"><g transform="translate(0,0)"><path class="background" aria-hidden="true" d="M0,0h0v15h0Z"/><g><g class="mark-rect role-mark layer_0_marks" role="graphics-object" aria-roledescription="rect mark container"><path aria-label="value: 5; label: gzip; group: other" role="graphics-symbol" aria-roledescription="bar" d="M0,0h84.41606107318508v15h-84.41606107318508Z" fill="#c9d6d2"/></g></g><path class="foreground" aria-hidden="true" d="" display="none"/></g></g></g><path class="foreground" aria-hidden="true" d="" display="none"/></g></g><g class="mark-text role-mark layer_1_marks" role="graphics-object" aria-roledescription="text mark container"><text aria-label="value: 23.9; label: fqxv --order shuffle; vlabel: 23.9×" role="graphics-symbol" aria-roledescription="text mark" text-anchor="start" transform="translate(408.5087719298246,17.999999999999993)" font-family="-apple-system, BlinkMacSystemFont, Segoe UI, Helvetica, Arial, sans-serif" font-size="12px" fill="#41564f">23.9×</text><text aria-label="value: 21.9; label: SPRING; vlabel: 21.9×" role="graphics-symbol" aria-roledescription="text mark" text-anchor="start" transform="translate(374.7423475005506,45.99999999999999)" font-family="-apple-system, BlinkMacSystemFont, Segoe UI, Helvetica, Arial, sans-serif" font-size="12px" fill="#41564f">21.9×</text><text aria-label="value: 20.2; label: fqxv --max; vlabel: 20.2×" role="graphics-symbol" aria-roledescription="text mark" text-anchor="start" transform="translate(346.0408867356677,73.99999999999999)" font-family="-apple-system, BlinkMacSystemFont, Segoe UI, Helvetica, Arial, sans-serif" font-size="12px" fill="#41564f">20.2×</text><text aria-label="value: 9.8; label: fqxv; vlabel: 9.8×" role="graphics-symbol" aria-roledescription="text mark" text-anchor="start" transform="translate(170.45547970344276,101.99999999999999)" font-family="-apple-system, BlinkMacSystemFont, Segoe UI, Helvetica, Arial, sans-serif" font-size="12px" fill="#41564f">9.8×</text><text aria-label="value: 9.6; label: fqz_comp; vlabel: 9.6×" role="graphics-symbol" aria-roledescription="text mark" text-anchor="start" transform="translate(167.07883726051531,130)" font-family="-apple-system, BlinkMacSystemFont, Segoe UI, Helvetica, Arial, sans-serif" font-size="12px" fill="#41564f">9.6×</text><text aria-label="value: 9.4; label: zstd -19; vlabel: 9.4×" role="graphics-symbol" aria-roledescription="text mark" text-anchor="start" transform="translate(163.70219481758792,157.99999999999997)" font-family="-apple-system, BlinkMacSystemFont, Segoe UI, Helvetica, Arial, sans-serif" font-size="12px" fill="#41564f">9.4×</text><text aria-label="value: 8.9; label: xz -9; vlabel: 8.9×" role="graphics-symbol" aria-roledescription="text mark" text-anchor="start" transform="translate(155.26058871026945,185.99999999999997)" font-family="-apple-system, BlinkMacSystemFont, Segoe UI, Helvetica, Arial, sans-serif" font-size="12px" fill="#41564f">8.9×</text><text aria-label="value: 5; label: gzip; vlabel: 5.0×" role="graphics-symbol" aria-roledescription="text mark" text-anchor="start" transform="translate(89.41606107318508,213.99999999999997)" font-family="-apple-system, BlinkMacSystemFont, Segoe UI, Helvetica, Arial, sans-serif" font-size="12px" fill="#41564f">5.0×</text></g></g><path class="foreground" aria-hidden="true" d="" display="none"/></g></g></g><defs><clipPath id="clip9"><path d="M0,0L400.5087719298246,0C402.1645170033066,0,403.5087719298246,1.344254926518,403.5087719298246,3L403.5087719298246,12C403.5087719298246,13.655745073482,402.1645170033066,15,400.5087719298246,15L0,15C0,15,0,15,0,15L0,0C0,0,0,0,0,0Z"/></clipPath><clipPath id="clip10"><path d="M0,0L366.7423475005506,0C368.3980925740326,0,369.7423475005506,1.344254926518,369.7423475005506,3L369.7423475005506,12C369.7423475005506,13.655745073482,368.3980925740326,15,366.7423475005506,15L0,15C0,15,0,15,0,15L0,0C0,0,0,0,0,0Z"/></clipPath><clipPath id="clip11"><path d="M0,0L338.0408867356677,0C339.6966318091497,0,341.0408867356677,1.344254926518,341.0408867356677,3L341.0408867356677,12C341.0408867356677,13.655745073482,339.6966318091497,15,338.0408867356677,15L0,15C0,15,0,15,0,15L0,0C0,0,0,0,0,0Z"/></clipPath><clipPath id="clip12"><path d="M0,0L162.45547970344276,0C164.11122477692476,0,165.45547970344276,1.344254926518,165.45547970344276,3L165.45547970344276,12C165.45547970344276,13.655745073482,164.11122477692476,15,162.45547970344276,15L0,15C0,15,0,15,0,15L0,0C0,0,0,0,0,0Z"/></clipPath><clipPath id="clip13"><path d="M0,0L159.07883726051531,0C160.7345823339973,0,162.07883726051531,1.344254926518,162.07883726051531,3L162.07883726051531,12C162.07883726051531,13.655745073482,160.7345823339973,15,159.07883726051531,15L0,15C0,15,0,15,0,15L0,0C0,0,0,0,0,0Z"/></clipPath><clipPath id="clip14"><path d="M0,0L155.70219481758792,0C157.35793989106992,0,158.70219481758792,1.344254926518,158.70219481758792,3L158.70219481758792,12C158.70219481758792,13.655745073482,157.35793989106992,15,155.70219481758792,15L0,15C0,15,0,15,0,15L0,0C0,0,0,0,0,0Z"/></clipPath><clipPath id="clip15"><path d="M0,0L147.26058871026945,0C148.91633378375144,0,150.26058871026945,1.344254926518,150.26058871026945,3L150.26058871026945,12C150.26058871026945,13.655745073482,148.91633378375144,15,147.26058871026945,15L0,15C0,15,0,15,0,15L0,0C0,0,0,0,0,0Z"/></clipPath><clipPath id="clip16"><path d="M0,0L81.41606107318508,0C83.07180614666707,0,84.41606107318508,1.344254926518,84.41606107318508,3L84.41606107318508,12C84.41606107318508,13.655745073482,83.07180614666707,15,81.41606107318508,15L0,15C0,15,0,15,0,15L0,0C0,0,0,0,0,0Z"/></clipPath></defs></svg>