<svg xmlns="http://www.w3.org/2000/svg" xmlns:xlink="http://www.w3.org/1999/xlink" version="1.1" class="marks" width="585" height="232" viewBox="0 0 585 232"><g fill="none" stroke-miterlimit="10" transform="translate(121,4)"><g class="mark-group role-frame root" role="graphics-object" aria-roledescription="group mark container"><g transform="translate(0,0)"><path class="background" aria-hidden="true" d="M0,0h460v224h-460Z"/><g><g class="mark-group role-axis" role="graphics-symbol" aria-roledescription="axis" aria-label="Y-axis for a discrete scale with 8 values: fqxv --order shuffle, SPRING, fqxv --max, fqxv, fqz_comp, ending with gzip"><g transform="translate(0.5,0.5)"><path class="background" aria-hidden="true" d="M0,0h0v0h0Z" pointer-events="none"/><g><g class="mark-text role-axis-label" pointer-events="none"><text text-anchor="end" transform="translate(-8,17.499999999999993)" font-family="-apple-system, BlinkMacSystemFont, Segoe UI, Helvetica, Arial, sans-serif" font-size="13px" fill="#c3d6d1" opacity="1">fqxv --order shuffle</text><text text-anchor="end" transform="translate(-8,45.49999999999999)" font-family="-apple-system, BlinkMacSystemFont, Segoe UI, Helvetica, Arial, sans-serif" font-size="13px" fill="#c3d6d1" opacity="1">SPRING</text><text text-anchor="end" transform="translate(-8,73.49999999999999)" font-family="-apple-system, BlinkMacSystemFont, Segoe UI, Helvetica, Arial, sans-serif" font-size="13px" fill="#c3d6d1" opacity="1">fqxv --max</text><text text-anchor="end" transform="translate(-8,101.49999999999999)" font-family="-apple-system, BlinkMacSystemFont, Segoe UI, Helvetica, Arial, sans-serif" font-size="13px" fill="#c3d6d1" opacity="1">fqxv</text><text text-anchor="end" transform="translate(-8,129.5)" font-family="-apple-system, BlinkMacSystemFont, Segoe UI, Helvetica, Arial, sans-serif" font-size="13px" fill="#c3d6d1" opacity="1">fqz_comp</text><text text-anchor="end" transform="translate(-8,157.49999999999997)" font-family="-apple-system, BlinkMacSystemFont, Segoe UI, Helvetica, Arial, sans-serif" font-size="13px" fill="#c3d6d1" opacity="1">xz -9</text><text text-anchor="end" transform="translate(-8,185.49999999999997)" font-family="-apple-system, BlinkMacSystemFont, Segoe UI, Helvetica, Arial, sans-serif" font-size="13px" fill="#c3d6d1" opacity="1">zstd -19</text><text text-anchor="end" transform="translate(-8,213.49999999999997)" font-family="-apple-system, BlinkMacSystemFont, Segoe UI, Helvetica, Arial, sans-serif" font-size="13px" fill="#c3d6d1" opacity="1">gzip</text></g></g><path class="foreground" aria-hidden="true" d="" pointer-events="none" display="none"/></g></g><g class="mark-group role-scope" role="graphics-object" aria-roledescription="group mark container"><g transform="translate(0,6.499999999999991)"><path class="background" aria-hidden="true" d="M0,0L400.50877192982455,0C402.16451700330657,0,403.50877192982455,1.344254926518,403.50877192982455,3L403.50877192982455,12C403.50877192982455,13.655745073482,402.16451700330657,15,400.50877192982455,15L0,15C0,15,0,15,0,15L0,0C0,0,0,0,0,0Z"/><g clip-path="url(#clip17)"><g class="mark-group role-scope" role="graphics-object" aria-roledescription="group mark container"><g transform="translate(0,0)"><path class="background" aria-hidden="true" d="M0,0h0v15h0Z"/><g><g class="mark-rect role-mark layer_0_marks" role="graphics-object" aria-roledescription="rect mark container"><path aria-label="value: 10.25; label: fqxv --order shuffle; group: fqxv" role="graphics-symbol" aria-roledescription="bar" d="M0,0h403.50877192982455v15h-403.50877192982455Z" fill="#3fd6c8"/></g></g><path class="foreground" aria-hidden="true" d="" display="none"/></g></g></g><path class="foreground" aria-hidden="true" d="" display="none"/></g><g transform="translate(0,34.49999999999999)"><path class="background" aria-hidden="true" d="M0,0L383.18741976893455,0C384.84316484241657,0,386.18741976893455,1.344254926518,386.18741976893455,3L386.18741976893455,12C386.18741976893455,13.655745073482,384.84316484241657,15,383.18741976893455,15L0,15C0,15,0,15,0,15L0,0C0,0,0,0,0,0Z"/><g clip-path="url(#clip18)"><g class="mark-group role-scope" role="graphics-object" aria-roledescription="group mark container"><g transform="translate(0,0)"><path class="background" aria-hidden="true" d="M0,0h0v15h0Z"/><g><g class="mark-rect role-mark layer_0_marks" role="graphics-object" aria-roledescription="rect mark container"><path aria-label="value: 9.81; label: SPRING; group: other" role="graphics-symbol" aria-roledescription="bar" d="M0,0h386.18741976893455v15h-386.18741976893455Z" fill="#41564f"/></g></g><path class="foreground" aria-hidden="true" d="" display="none"/></g></g></g><path class="foreground" aria-hidden="true" d="" display="none"/></g><g transform="translate(0,62.499999999999986)"><path class="background" aria-hidden="true" d="M0,0L379.2507488232777,0C380.90649389675974,0,382.2507488232777,1.344254926518,382.2507488232777,3L382.2507488232777,12C382.2507488232777,13.655745073482,380.90649389675974,15,379.2507488232777,15L0,15C0,15,0,15,0,15L0,0C0,0,0,0,0,0Z"/><g clip-path="url(#clip19)"><g class="mark-group role-scope" role="graphics-object" aria-roledescription="group mark container"><g transform="translate(0,0)"><path class="background" aria-hidden="true" d="M0,0h0v15h0Z"/><g><g class="mark-rect role-mark layer_0_marks" role="graphics-object" aria-roledescription="rect mark container"><path aria-label="value: 9.71; label: fqxv --max; group: fqxv" role="graphics-symbol" aria-roledescription="bar" d="M0,0h382.2507488232777v15h-382.2507488232777Z" fill="#3fd6c8"/></g></g><path class="foreground" aria-hidden="true" d="" display="none"/></g></g></g><path class="foreground" aria-hidden="true" d="" display="none"/></g><g transform="translate(0,90.49999999999999)"><path class="background" aria-hidden="true" d="M0,0L277.2909713307659,0C278.9467164042479,0,280.2909713307659,1.344254926518,280.2909713307659,3L280.2909713307659,12C280.2909713307659,13.655745073482,278.9467164042479,15,277.2909713307659,15L0,15C0,15,0,15,0,15L0,0C0,0,0,0,0,0Z"/><g clip-path="url(#clip20)"><g class="mark-group role-scope" role="graphics-object" aria-roledescription="group mark container"><g transform="translate(0,0)"><path class="background" aria-hidden="true" d="M0,0h0v15h0Z"/><g><g class="mark-rect role-mark layer_0_marks" role="graphics-object" aria-roledescription="rect mark container"><path aria-label="value: 7.12; label: fqxv; group: fqxv" role="graphics-symbol" aria-roledescription="bar" d="M0,0h280.2909713307659v15h-280.2909713307659Z" fill="#3fd6c8"/></g></g><path class="foreground" aria-hidden="true" d="" display="none"/></g></g></g><path class="foreground" aria-hidden="true" d="" display="none"/></g><g transform="translate(0,118.49999999999999)"><path class="background" aria-hidden="true" d="M0,0L274.53530166880614,0C276.19104674228817,0,277.53530166880614,1.344254926518,277.53530166880614,3L277.53530166880614,12C277.53530166880614,13.655745073482,276.19104674228817,15,274.53530166880614,15L0,15C0,15,0,15,0,15L0,0C0,0,0,0,0,0Z"/><g clip-path="url(#clip21)"><g class="mark-group role-scope" role="graphics-object" aria-roledescription="group mark container"><g transform="translate(0,0)"><path class="background" aria-hidden="true" d="M0,0h0v15h0Z"/><g><g class="mark-rect role-mark layer_0_marks" role="graphics-object" aria-roledescription="rect mark container"><path aria-label="value: 7.05; label: fqz_comp; group: other" role="graphics-symbol" aria-roledescription="bar" d="M0,0h277.53530166880614v15h-277.53530166880614Z" fill="#41564f"/></g></g><path class="foreground" aria-hidden="true" d="" display="none"/></g></g></g><path class="foreground" aria-hidden="true" d="" display="none"/></g><g transform="translate(0,146.49999999999997)"><path class="background" aria-hidden="true" d="M0,0L235.95592640136928,0C237.61167147485128,0,238.95592640136928,1.344254926518,238.95592640136928,3L238.95592640136928,12C238.95592640136928,13.655745073482,237.61167147485128,15,235.95592640136928,15L0,15C0,15,0,15,0,15L0,0C0,0,0,0,0,0Z"/><g clip-path="url(#clip22)"><g class="mark-group role-scope" role="graphics-object" aria-roledescription="group mark container"><g transform="translate(0,0)"><path class="background" aria-hidden="true" d="M0,0h0v15h0Z"/><g><g class="mark-rect role-mark layer_0_marks" role="graphics-object" aria-roledescription="rect mark container"><path aria-label="value: 6.07; label: xz -9; group: other" role="graphics-symbol" aria-roledescription="bar" d="M0,0h238.95592640136928v15h-238.95592640136928Z" fill="#41564f"/></g></g><path class="foreground" aria-hidden="true" d="" display="none"/></g></g></g><path class="foreground" aria-hidden="true" d="" display="none"/></g><g transform="translate(0,174.49999999999997)"><path class="background" aria-hidden="true" d="M0,0L228.08258451005563,0C229.73832958353762,0,231.08258451005563,1.344254926518,231.08258451005563,3L231.08258451005563,12C231.08258451005563,13.655745073482,229.73832958353762,15,228.08258451005563,15L0,15C0,15,0,15,0,15L0,0C0,0,0,0,0,0Z"/><g clip-path="url(#clip23)"><g class="mark-group role-scope" role="graphics-object" aria-roledescription="group mark container"><g transform="translate(0,0)"><path class="background" aria-hidden="true" d="M0,0h0v15h0Z"/><g><g class="mark-rect role-mark layer_0_marks" role="graphics-object" aria-roledescription="rect mark container"><path aria-label="value: 5.87; label: zstd -19; group: other" role="graphics-symbol" aria-roledescription="bar" d="M0,0h231.08258451005563v15h-231.08258451005563Z" fill="#41564f"/></g></g><path class="foreground" aria-hidden="true" d="" display="none"/></g></g></g><path class="foreground" aria-hidden="true" d="" display="none"/></g><g transform="translate(0,202.49999999999997)"><path class="background" aria-hidden="true" d="M0,0L135.57081728712024,0C137.22656236060223,0,138.57081728712024,1.344254926518,138.57081728712024,3L138.57081728712024,12C138.57081728712024,13.655745073482,137.22656236060223,15,135.57081728712024,15L0,15C0,15,0,15,0,15L0,0C0,0,0,0,0,0Z"/><g clip-path="url(#clip24)"><g class="mark-group role-scope" role="graphics-object" aria-roledescription="group mark container"><g transform="translate(0,0)"><path class="background" aria-hidden="true" d="M0,0h0v15h0Z"/><g><g class="mark-rect role-mark layer_0_marks" role="graphics-object" aria-roledescription="rect mark container"><path aria-label="value: 3.52; label: gzip; group: other" role="graphics-symbol" aria-roledescription="bar" d="M0,0h138.57081728712024v15h-138.57081728712024Z" fill="#41564f"/></g></g><path class="foreground" aria-hidden="true" d="" display="none"/></g></g></g><path class="foreground" aria-hidden="true" d="" display="none"/></g></g><g class="mark-text role-mark layer_1_marks" role="graphics-object" aria-roledescription="text mark container"><text aria-label="value: 10.25; label: fqxv --order shuffle; vlabel: 10.25×" role="graphics-symbol" aria-roledescription="text mark" text-anchor="start" transform="translate(408.50877192982455,17.999999999999993)" font-family="-apple-system, BlinkMacSystemFont, Segoe UI, Helvetica, Arial, sans-serif" font-size="12px" fill="#c3d6d1">10.25×</text><text aria-label="value: 9.81; label: SPRING; vlabel: 9.81×" role="graphics-symbol" aria-roledescription="text mark" text-anchor="start" transform="translate(391.18741976893455,45.99999999999999)" font-family="-apple-system, BlinkMacSystemFont, Segoe UI, Helvetica, Arial, sans-serif" font-size="12px" fill="#c3d6d1">9.81×</text><text aria-label="value: 9.71; label: fqxv --max; vlabel: 9.71×" role="graphics-symbol" aria-roledescription="text mark" text-anchor="start" transform="translate(387.2507488232777,73.99999999999999)" font-family="-apple-system, BlinkMacSystemFont, Segoe UI, Helvetica, Arial, sans-serif" font-size="12px" fill="#c3d6d1">9.71×</text><text aria-label="value: 7.12; label: fqxv; vlabel: 7.12×" role="graphics-symbol" aria-roledescription="text mark" text-anchor="start" transform="translate(285.2909713307659,101.99999999999999)" font-family="-apple-system, BlinkMacSystemFont, Segoe UI, Helvetica, Arial, sans-serif" font-size="12px" fill="#c3d6d1">7.12×</text><text aria-label="value: 7.05; label: fqz_comp; vlabel: 7.05×" role="graphics-symbol" aria-roledescription="text mark" text-anchor="start" transform="translate(282.53530166880614,130)" font-family="-apple-system, BlinkMacSystemFont, Segoe UI, Helvetica, Arial, sans-serif" font-size="12px" fill="#c3d6d1">7.05×</text><text aria-label="value: 6.07; label: xz -9; vlabel: 6.07×" role="graphics-symbol" aria-roledescription="text mark" text-anchor="start" transform="translate(243.95592640136928,157.99999999999997)" font-family="-apple-system, BlinkMacSystemFont, Segoe UI, Helvetica, Arial, sans-serif" font-size="12px" fill="#c3d6d1">6.07×</text><text aria-label="value: 5.87; label: zstd -19; vlabel: 5.87×" role="graphics-symbol" aria-roledescription="text mark" text-anchor="start" transform="translate(236.08258451005563,185.99999999999997)" font-family="-apple-system, BlinkMacSystemFont, Segoe UI, Helvetica, Arial, sans-serif" font-size="12px" fill="#c3d6d1">5.87×</text><text aria-label="value: 3.52; label: gzip; vlabel: 3.52×" role="graphics-symbol" aria-roledescription="text mark" text-anchor="start" transform="translate(143.57081728712024,213.99999999999997)" font-family="-apple-system, BlinkMacSystemFont, Segoe UI, Helvetica, Arial, sans-serif" font-size="12px" fill="#c3d6d1">3.52×</text></g></g><path class="foreground" aria-hidden="true" d="" display="none"/></g></g></g><defs><clipPath id="clip17"><path d="M0,0L400.50877192982455,0C402.16451700330657,0,403.50877192982455,1.344254926518,403.50877192982455,3L403.50877192982455,12C403.50877192982455,13.655745073482,402.16451700330657,15,400.50877192982455,15L0,15C0,15,0,15,0,15L0,0C0,0,0,0,0,0Z"/></clipPath><clipPath id="clip18"><path d="M0,0L383.18741976893455,0C384.84316484241657,0,386.18741976893455,1.344254926518,386.18741976893455,3L386.18741976893455,12C386.18741976893455,13.655745073482,384.84316484241657,15,383.18741976893455,15L0,15C0,15,0,15,0,15L0,0C0,0,0,0,0,0Z"/></clipPath><clipPath id="clip19"><path d="M0,0L379.2507488232777,0C380.90649389675974,0,382.2507488232777,1.344254926518,382.2507488232777,3L382.2507488232777,12C382.2507488232777,13.655745073482,380.90649389675974,15,379.2507488232777,15L0,15C0,15,0,15,0,15L0,0C0,0,0,0,0,0Z"/></clipPath><clipPath id="clip20"><path d="M0,0L277.2909713307659,0C278.9467164042479,0,280.2909713307659,1.344254926518,280.2909713307659,3L280.2909713307659,12C280.2909713307659,13.655745073482,278.9467164042479,15,277.2909713307659,15L0,15C0,15,0,15,0,15L0,0C0,0,0,0,0,0Z"/></clipPath><clipPath id="clip21"><path d="M0,0L274.53530166880614,0C276.19104674228817,0,277.53530166880614,1.344254926518,277.53530166880614,3L277.53530166880614,12C277.53530166880614,13.655745073482,276.19104674228817,15,274.53530166880614,15L0,15C0,15,0,15,0,15L0,0C0,0,0,0,0,0Z"/></clipPath><clipPath id="clip22"><path d="M0,0L235.95592640136928,0C237.61167147485128,0,238.95592640136928,1.344254926518,238.95592640136928,3L238.95592640136928,12C238.95592640136928,13.655745073482,237.61167147485128,15,235.95592640136928,15L0,15C0,15,0,15,0,15L0,0C0,0,0,0,0,0Z"/></clipPath><clipPath id="clip23"><path d="M0,0L228.08258451005563,0C229.73832958353762,0,231.08258451005563,1.344254926518,231.08258451005563,3L231.08258451005563,12C231.08258451005563,13.655745073482,229.73832958353762,15,228.08258451005563,15L0,15C0,15,0,15,0,15L0,0C0,0,0,0,0,0Z"/></clipPath><clipPath id="clip24"><path d="M0,0L135.57081728712024,0C137.22656236060223,0,138.57081728712024,1.344254926518,138.57081728712024,3L138.57081728712024,12C138.57081728712024,13.655745073482,137.22656236060223,15,135.57081728712024,15L0,15C0,15,0,15,0,15L0,0C0,0,0,0,0,0Z"/></clipPath></defs></svg>