<svg xmlns="http://www.w3.org/2000/svg" xmlns:xlink="http://www.w3.org/1999/xlink" version="1.1" class="marks" width="533" height="176" viewBox="0 0 533 176"><g fill="none" stroke-miterlimit="10" transform="translate(69,4)"><g class="mark-group role-frame root" role="graphics-object" aria-roledescription="group mark container"><g transform="translate(0,0)"><path class="background" aria-hidden="true" d="M0,0h460v168h-460Z"/><g><g class="mark-group role-axis" role="graphics-symbol" aria-roledescription="axis" aria-label="Y-axis for a discrete scale with 6 values: gzip, fqxv, fqz_comp, SPRING, zstd -19, xz -9"><g transform="translate(0.5,0.5)"><path class="background" aria-hidden="true" d="M0,0h0v0h0Z" pointer-events="none"/><g><g class="mark-text role-axis-label" pointer-events="none"><text text-anchor="end" transform="translate(-8,17.499999999999993)" font-family="-apple-system, BlinkMacSystemFont, Segoe UI, Helvetica, Arial, sans-serif" font-size="13px" fill="#41564f" opacity="1">gzip</text><text text-anchor="end" transform="translate(-8,45.49999999999999)" font-family="-apple-system, BlinkMacSystemFont, Segoe UI, Helvetica, Arial, sans-serif" font-size="13px" fill="#41564f" opacity="1">fqxv</text><text text-anchor="end" transform="translate(-8,73.49999999999999)" font-family="-apple-system, BlinkMacSystemFont, Segoe UI, Helvetica, Arial, sans-serif" font-size="13px" fill="#41564f" opacity="1">fqz_comp</text><text text-anchor="end" transform="translate(-8,101.49999999999999)" font-family="-apple-system, BlinkMacSystemFont, Segoe UI, Helvetica, Arial, sans-serif" font-size="13px" fill="#41564f" opacity="1">SPRING</text><text text-anchor="end" transform="translate(-8,129.5)" font-family="-apple-system, BlinkMacSystemFont, Segoe UI, Helvetica, Arial, sans-serif" font-size="13px" fill="#41564f" opacity="1">zstd -19</text><text text-anchor="end" transform="translate(-8,157.49999999999997)" font-family="-apple-system, BlinkMacSystemFont, Segoe UI, Helvetica, Arial, sans-serif" font-size="13px" fill="#41564f" opacity="1">xz -9</text></g></g><path class="foreground" aria-hidden="true" d="" pointer-events="none" display="none"/></g></g><g class="mark-group role-scope" role="graphics-object" aria-roledescription="group mark container"><g transform="translate(0,6.499999999999991)"><path class="background" aria-hidden="true" d="M0,0L400.50877192982455,0C402.16451700330657,0,403.50877192982455,1.344254926518,403.50877192982455,3L403.50877192982455,12C403.50877192982455,13.655745073482,402.16451700330657,15,400.50877192982455,15L0,15C0,15,0,15,0,15L0,0C0,0,0,0,0,0Z"/><g clip-path="url(#clip39)"><g class="mark-group role-scope" role="graphics-object" aria-roledescription="group mark container"><g transform="translate(0,0)"><path class="background" aria-hidden="true" d="M0,0h0v15h0Z"/><g><g class="mark-rect role-mark layer_0_marks" role="graphics-object" aria-roledescription="rect mark container"><path aria-label="value: 374; label: gzip; group: other" role="graphics-symbol" aria-roledescription="bar" d="M0,0h403.50877192982455v15h-403.50877192982455Z" fill="#c9d6d2"/></g></g><path class="foreground" aria-hidden="true" d="" display="none"/></g></g></g><path class="foreground" aria-hidden="true" d="" display="none"/></g><g transform="translate(0,34.49999999999999)"><path class="background" aria-hidden="true" d="M0,0L129.70475654376582,0C131.36050161724782,0,132.70475654376582,1.344254926518,132.70475654376582,3L132.70475654376582,12C132.70475654376582,13.655745073482,131.36050161724782,15,129.70475654376582,15L0,15C0,15,0,15,0,15L0,0C0,0,0,0,0,0Z"/><g clip-path="url(#clip40)"><g class="mark-group role-scope" role="graphics-object" aria-roledescription="group mark container"><g transform="translate(0,0)"><path class="background" aria-hidden="true" d="M0,0h0v15h0Z"/><g><g class="mark-rect role-mark layer_0_marks" role="graphics-object" aria-roledescription="rect mark container"><path aria-label="value: 123; label: fqxv; group: fqxv" role="graphics-symbol" aria-roledescription="bar" d="M0,0h132.70475654376582v15h-132.70475654376582Z" fill="#0e7c72"/></g></g><path class="foreground" aria-hidden="true" d="" display="none"/></g></g></g><path class="foreground" aria-hidden="true" d="" display="none"/></g><g transform="translate(0,62.499999999999986)"><path class="background" aria-hidden="true" d="M0,0L110.28454826906838,0C111.94029334255038,0,113.28454826906838,1.344254926518,113.28454826906838,3L113.28454826906838,12C113.28454826906838,13.655745073482,111.94029334255038,15,110.28454826906838,15L0,15C0,15,0,15,0,15L0,0C0,0,0,0,0,0Z"/><g clip-path="url(#clip41)"><g class="mark-group role-scope" role="graphics-object" aria-roledescription="group mark container"><g transform="translate(0,0)"><path class="background" aria-hidden="true" d="M0,0h0v15h0Z"/><g><g class="mark-rect role-mark layer_0_marks" role="graphics-object" aria-roledescription="rect mark container"><path aria-label="value: 105; label: fqz_comp; group: other" role="graphics-symbol" aria-roledescription="bar" d="M0,0h113.28454826906838v15h-113.28454826906838Z" fill="#c9d6d2"/></g></g><path class="foreground" aria-hidden="true" d="" display="none"/></g></g></g><path class="foreground" aria-hidden="true" d="" display="none"/></g><g transform="translate(0,90.49999999999999)"><path class="background" aria-hidden="true" d="M0,0L72.52303217937893,0C74.17877725286093,0,75.52303217937893,1.344254926518,75.52303217937893,3L75.52303217937893,12C75.52303217937893,13.655745073482,74.17877725286093,15,72.52303217937893,15L0,15C0,15,0,15,0,15L0,0C0,0,0,0,0,0Z"/><g clip-path="url(#clip42)"><g class="mark-group role-scope" role="graphics-object" aria-roledescription="group mark container"><g transform="translate(0,0)"><path class="background" aria-hidden="true" d="M0,0h0v15h0Z"/><g><g class="mark-rect role-mark layer_0_marks" role="graphics-object" aria-roledescription="rect mark container"><path aria-label="value: 70; label: SPRING; group: other" role="graphics-symbol" aria-roledescription="bar" d="M0,0h75.52303217937893v15h-75.52303217937893Z" fill="#c9d6d2"/></g></g><path class="foreground" aria-hidden="true" d="" display="none"/></g></g></g><path class="foreground" aria-hidden="true" d="" display="none"/></g><g transform="translate(0,118.49999999999999)"><path class="background" aria-hidden="true" d="M0,0L8.867905056759545,0C10.523650130241545,0,11.867905056759545,1.344254926518,11.867905056759545,3L11.867905056759545,12C11.867905056759545,13.655745073482,10.523650130241545,15,8.867905056759545,15L0,15C0,15,0,15,0,15L0,0C0,0,0,0,0,0Z"/><g clip-path="url(#clip43)"><g class="mark-group role-scope" role="graphics-object" aria-roledescription="group mark container"><g transform="translate(0,0)"><path class="background" aria-hidden="true" d="M0,0h0v15h0Z"/><g><g class="mark-rect role-mark layer_0_marks" role="graphics-object" aria-roledescription="rect mark container"><path aria-label="value: 11; label: zstd -19; group: other" role="graphics-symbol" aria-roledescription="bar" d="M0,0h11.867905056759545v15h-11.867905056759545Z" fill="#c9d6d2"/></g></g><path class="foreground" aria-hidden="true" d="" display="none"/></g></g></g><path class="foreground" aria-hidden="true" d="" display="none"/></g><g transform="translate(0,146.49999999999997)"><path class="background" aria-hidden="true" d="M0,0L7.789004597054133,0C9.444749670536133,0,10.789004597054133,1.344254926518,10.789004597054133,3L10.789004597054133,12C10.789004597054133,13.655745073482,9.444749670536133,15,7.789004597054133,15L0,15C0,15,0,15,0,15L0,0C0,0,0,0,0,0Z"/><g clip-path="url(#clip44)"><g class="mark-group role-scope" role="graphics-object" aria-roledescription="group mark container"><g transform="translate(0,0)"><path class="background" aria-hidden="true" d="M0,0h0v15h0Z"/><g><g class="mark-rect role-mark layer_0_marks" role="graphics-object" aria-roledescription="rect mark container"><path aria-label="value: 10; label: xz -9; group: other" role="graphics-symbol" aria-roledescription="bar" d="M0,0h10.789004597054133v15h-10.789004597054133Z" fill="#c9d6d2"/></g></g><path class="foreground" aria-hidden="true" d="" display="none"/></g></g></g><path class="foreground" aria-hidden="true" d="" display="none"/></g></g><g class="mark-text role-mark layer_1_marks" role="graphics-object" aria-roledescription="text mark container"><text aria-label="value: 374; label: gzip; vlabel: 374" role="graphics-symbol" aria-roledescription="text mark" text-anchor="start" transform="translate(408.50877192982455,17.999999999999993)" font-family="-apple-system, BlinkMacSystemFont, Segoe UI, Helvetica, Arial, sans-serif" font-size="12px" fill="#41564f">374</text><text aria-label="value: 123; label: fqxv; vlabel: 123" role="graphics-symbol" aria-roledescription="text mark" text-anchor="start" transform="translate(137.70475654376582,45.99999999999999)" font-family="-apple-system, BlinkMacSystemFont, Segoe UI, Helvetica, Arial, sans-serif" font-size="12px" fill="#41564f">123</text><text aria-label="value: 105; label: fqz_comp; vlabel: 105" role="graphics-symbol" aria-roledescription="text mark" text-anchor="start" transform="translate(118.28454826906838,73.99999999999999)" font-family="-apple-system, BlinkMacSystemFont, Segoe UI, Helvetica, Arial, sans-serif" font-size="12px" fill="#41564f">105</text><text aria-label="value: 70; label: SPRING; vlabel: 70" role="graphics-symbol" aria-roledescription="text mark" text-anchor="start" transform="translate(80.52303217937893,101.99999999999999)" font-family="-apple-system, BlinkMacSystemFont, Segoe UI, Helvetica, Arial, sans-serif" font-size="12px" fill="#41564f">70</text><text aria-label="value: 11; label: zstd -19; vlabel: 11" role="graphics-symbol" aria-roledescription="text mark" text-anchor="start" transform="translate(16.867905056759547,130)" font-family="-apple-system, BlinkMacSystemFont, Segoe UI, Helvetica, Arial, sans-serif" font-size="12px" fill="#41564f">11</text><text aria-label="value: 10; label: xz -9; vlabel: 10" role="graphics-symbol" aria-roledescription="text mark" text-anchor="start" transform="translate(15.789004597054133,157.99999999999997)" font-family="-apple-system, BlinkMacSystemFont, Segoe UI, Helvetica, Arial, sans-serif" font-size="12px" fill="#41564f">10</text></g></g><path class="foreground" aria-hidden="true" d="" display="none"/></g></g></g><defs><clipPath id="clip39"><path d="M0,0L400.50877192982455,0C402.16451700330657,0,403.50877192982455,1.344254926518,403.50877192982455,3L403.50877192982455,12C403.50877192982455,13.655745073482,402.16451700330657,15,400.50877192982455,15L0,15C0,15,0,15,0,15L0,0C0,0,0,0,0,0Z"/></clipPath><clipPath id="clip40"><path d="M0,0L129.70475654376582,0C131.36050161724782,0,132.70475654376582,1.344254926518,132.70475654376582,3L132.70475654376582,12C132.70475654376582,13.655745073482,131.36050161724782,15,129.70475654376582,15L0,15C0,15,0,15,0,15L0,0C0,0,0,0,0,0Z"/></clipPath><clipPath id="clip41"><path d="M0,0L110.28454826906838,0C111.94029334255038,0,113.28454826906838,1.344254926518,113.28454826906838,3L113.28454826906838,12C113.28454826906838,13.655745073482,111.94029334255038,15,110.28454826906838,15L0,15C0,15,0,15,0,15L0,0C0,0,0,0,0,0Z"/></clipPath><clipPath id="clip42"><path d="M0,0L72.52303217937893,0C74.17877725286093,0,75.52303217937893,1.344254926518,75.52303217937893,3L75.52303217937893,12C75.52303217937893,13.655745073482,74.17877725286093,15,72.52303217937893,15L0,15C0,15,0,15,0,15L0,0C0,0,0,0,0,0Z"/></clipPath><clipPath id="clip43"><path d="M0,0L8.867905056759545,0C10.523650130241545,0,11.867905056759545,1.344254926518,11.867905056759545,3L11.867905056759545,12C11.867905056759545,13.655745073482,10.523650130241545,15,8.867905056759545,15L0,15C0,15,0,15,0,15L0,0C0,0,0,0,0,0Z"/></clipPath><clipPath id="clip44"><path d="M0,0L7.789004597054133,0C9.444749670536133,0,10.789004597054133,1.344254926518,10.789004597054133,3L10.789004597054133,12C10.789004597054133,13.655745073482,9.444749670536133,15,7.789004597054133,15L0,15C0,15,0,15,0,15L0,0C0,0,0,0,0,0Z"/></clipPath></defs></svg>