<svg xmlns="http://www.w3.org/2000/svg" xmlns:xlink="http://www.w3.org/1999/xlink" version="1.1" class="marks" width="563" height="120" viewBox="0 0 563 120"><g fill="none" stroke-miterlimit="10" transform="translate(99,4)"><g class="mark-group role-frame root" role="graphics-object" aria-roledescription="group mark container"><g transform="translate(0,0)"><path class="background" aria-hidden="true" d="M0,0h460v112h-460Z"/><g><g class="mark-group role-axis" role="graphics-symbol" aria-roledescription="axis" aria-label="Y-axis for a discrete scale with 4 values: fqxv · HiFi, CoLoRd · HiFi, fqxv · ONT, CoLoRd · ONT"><g transform="translate(0.5,0.5)"><path class="background" aria-hidden="true" d="M0,0h0v0h0Z" pointer-events="none"/><g><g class="mark-text role-axis-label" pointer-events="none"><text text-anchor="end" transform="translate(-8,17.5)" font-family="-apple-system, BlinkMacSystemFont, Segoe UI, Helvetica, Arial, sans-serif" font-size="13px" fill="#c3d6d1" opacity="1">fqxv · HiFi</text><text text-anchor="end" transform="translate(-8,45.5)" font-family="-apple-system, BlinkMacSystemFont, Segoe UI, Helvetica, Arial, sans-serif" font-size="13px" fill="#c3d6d1" opacity="1">CoLoRd · HiFi</text><text text-anchor="end" transform="translate(-8,73.5)" font-family="-apple-system, BlinkMacSystemFont, Segoe UI, Helvetica, Arial, sans-serif" font-size="13px" fill="#c3d6d1" opacity="1">fqxv · ONT</text><text text-anchor="end" transform="translate(-8,101.5)" font-family="-apple-system, BlinkMacSystemFont, Segoe UI, Helvetica, Arial, sans-serif" font-size="13px" fill="#c3d6d1" opacity="1">CoLoRd · ONT</text></g></g><path class="foreground" aria-hidden="true" d="" pointer-events="none" display="none"/></g></g><g class="mark-group role-scope" role="graphics-object" aria-roledescription="group mark container"><g transform="translate(0,6.499999999999998)"><path class="background" aria-hidden="true" d="M0,0L400.5087719298246,0C402.1645170033066,0,403.5087719298246,1.344254926518,403.5087719298246,3L403.5087719298246,12C403.5087719298246,13.655745073482,402.1645170033066,15,400.5087719298246,15L0,15C0,15,0,15,0,15L0,0C0,0,0,0,0,0Z"/><g clip-path="url(#clip45)"><g class="mark-group role-scope" role="graphics-object" aria-roledescription="group mark container"><g transform="translate(0,0)"><path class="background" aria-hidden="true" d="M0,0h0v15h0Z"/><g><g class="mark-rect role-mark layer_0_marks" role="graphics-object" aria-roledescription="rect mark container"><path aria-label="value: 4.73; label: fqxv · HiFi; group: fqxv" role="graphics-symbol" aria-roledescription="bar" d="M0,0h403.5087719298246v15h-403.5087719298246Z" fill="#3fd6c8"/></g></g><path class="foreground" aria-hidden="true" d="" display="none"/></g></g></g><path class="foreground" aria-hidden="true" d="" display="none"/></g><g transform="translate(0,34.5)"><path class="background" aria-hidden="true" d="M0,0L375.7693334816958,0C377.42507855517783,0,378.7693334816958,1.344254926518,378.7693334816958,3L378.7693334816958,12C378.7693334816958,13.655745073482,377.42507855517783,15,375.7693334816958,15L0,15C0,15,0,15,0,15L0,0C0,0,0,0,0,0Z"/><g clip-path="url(#clip46)"><g class="mark-group role-scope" role="graphics-object" aria-roledescription="group mark container"><g transform="translate(0,0)"><path class="background" aria-hidden="true" d="M0,0h0v15h0Z"/><g><g class="mark-rect role-mark layer_0_marks" role="graphics-object" aria-roledescription="rect mark container"><path aria-label="value: 4.44; label: CoLoRd · HiFi; group: other" role="graphics-symbol" aria-roledescription="bar" d="M0,0h378.7693334816958v15h-378.7693334816958Z" fill="#41564f"/></g></g><path class="foreground" aria-hidden="true" d="" display="none"/></g></g></g><path class="foreground" aria-hidden="true" d="" display="none"/></g><g transform="translate(0,62.5)"><path class="background" aria-hidden="true" d="M0,0L258.04372983197953,0C259.69947490546156,0,261.04372983197953,1.344254926518,261.04372983197953,3L261.04372983197953,12C261.04372983197953,13.655745073482,259.69947490546156,15,258.04372983197953,15L0,15C0,15,0,15,0,15L0,0C0,0,0,0,0,0Z"/><g clip-path="url(#clip47)"><g class="mark-group role-scope" role="graphics-object" aria-roledescription="group mark container"><g transform="translate(0,0)"><path class="background" aria-hidden="true" d="M0,0h0v15h0Z"/><g><g class="mark-rect role-mark layer_0_marks" role="graphics-object" aria-roledescription="rect mark container"><path aria-label="value: 3.06; label: fqxv · ONT; group: fqxv" role="graphics-symbol" aria-roledescription="bar" d="M0,0h261.04372983197953v15h-261.04372983197953Z" fill="#3fd6c8"/></g></g><path class="foreground" aria-hidden="true" d="" display="none"/></g></g></g><path class="foreground" aria-hidden="true" d="" display="none"/></g><g transform="translate(0,90.5)"><path class="background" aria-hidden="true" d="M0,0L257.1906457475613,0C258.8463908210433,0,260.1906457475613,1.344254926518,260.1906457475613,3L260.1906457475613,12C260.1906457475613,13.655745073482,258.8463908210433,15,257.1906457475613,15L0,15C0,15,0,15,0,15L0,0C0,0,0,0,0,0Z"/><g clip-path="url(#clip48)"><g class="mark-group role-scope" role="graphics-object" aria-roledescription="group mark container"><g transform="translate(0,0)"><path class="background" aria-hidden="true" d="M0,0h0v15h0Z"/><g><g class="mark-rect role-mark layer_0_marks" role="graphics-object" aria-roledescription="rect mark container"><path aria-label="value: 3.05; label: CoLoRd · ONT; group: other" role="graphics-symbol" aria-roledescription="bar" d="M0,0h260.1906457475613v15h-260.1906457475613Z" fill="#41564f"/></g></g><path class="foreground" aria-hidden="true" d="" display="none"/></g></g></g><path class="foreground" aria-hidden="true" d="" display="none"/></g></g><g class="mark-text role-mark layer_1_marks" role="graphics-object" aria-roledescription="text mark container"><text aria-label="value: 4.73; label: fqxv · HiFi; vlabel: 4.73×" role="graphics-symbol" aria-roledescription="text mark" text-anchor="start" transform="translate(408.5087719298246,18)" font-family="-apple-system, BlinkMacSystemFont, Segoe UI, Helvetica, Arial, sans-serif" font-size="12px" fill="#c3d6d1">4.73×</text><text aria-label="value: 4.44; label: CoLoRd · HiFi; vlabel: 4.44×" role="graphics-symbol" aria-roledescription="text mark" text-anchor="start" transform="translate(383.7693334816958,46)" font-family="-apple-system, BlinkMacSystemFont, Segoe UI, Helvetica, Arial, sans-serif" font-size="12px" fill="#c3d6d1">4.44×</text><text aria-label="value: 3.06; label: fqxv · ONT; vlabel: 3.06×" role="graphics-symbol" aria-roledescription="text mark" text-anchor="start" transform="translate(266.04372983197953,74)" font-family="-apple-system, BlinkMacSystemFont, Segoe UI, Helvetica, Arial, sans-serif" font-size="12px" fill="#c3d6d1">3.06×</text><text aria-label="value: 3.05; label: CoLoRd · ONT; vlabel: 3.05×" role="graphics-symbol" aria-roledescription="text mark" text-anchor="start" transform="translate(265.1906457475613,102)" font-family="-apple-system, BlinkMacSystemFont, Segoe UI, Helvetica, Arial, sans-serif" font-size="12px" fill="#c3d6d1">3.05×</text></g></g><path class="foreground" aria-hidden="true" d="" display="none"/></g></g></g><defs><clipPath id="clip45"><path d="M0,0L400.5087719298246,0C402.1645170033066,0,403.5087719298246,1.344254926518,403.5087719298246,3L403.5087719298246,12C403.5087719298246,13.655745073482,402.1645170033066,15,400.5087719298246,15L0,15C0,15,0,15,0,15L0,0C0,0,0,0,0,0Z"/></clipPath><clipPath id="clip46"><path d="M0,0L375.7693334816958,0C377.42507855517783,0,378.7693334816958,1.344254926518,378.7693334816958,3L378.7693334816958,12C378.7693334816958,13.655745073482,377.42507855517783,15,375.7693334816958,15L0,15C0,15,0,15,0,15L0,0C0,0,0,0,0,0Z"/></clipPath><clipPath id="clip47"><path d="M0,0L258.04372983197953,0C259.69947490546156,0,261.04372983197953,1.344254926518,261.04372983197953,3L261.04372983197953,12C261.04372983197953,13.655745073482,259.69947490546156,15,258.04372983197953,15L0,15C0,15,0,15,0,15L0,0C0,0,0,0,0,0Z"/></clipPath><clipPath id="clip48"><path d="M0,0L257.1906457475613,0C258.8463908210433,0,260.1906457475613,1.344254926518,260.1906457475613,3L260.1906457475613,12C260.1906457475613,13.655745073482,258.8463908210433,15,257.1906457475613,15L0,15C0,15,0,15,0,15L0,0C0,0,0,0,0,0Z"/></clipPath></defs></svg>